HIERARCHY
ROOT Hips
{
	OFFSET 0.000000 103.266502 0.000000
	CHANNELS 6 Xposition Yposition Zposition Xrotation Yrotation Zrotation 
	JOINT Spine
	{
		OFFSET -0.002400 12.777504 0.315300
		CHANNELS 3 Xrotation Yrotation Zrotation
		JOINT Spine1
		{
			OFFSET -0.002067 5.816869 0.032633
			CHANNELS 3 Xrotation Yrotation Zrotation
			JOINT Spine1_split
			{
				OFFSET -0.002067 5.816869 0.032633
				CHANNELS 3 Xrotation Yrotation Zrotation
				JOINT Spine2
				{
					OFFSET -0.002067 5.816869 0.032633
					CHANNELS 3 Xrotation Yrotation Zrotation
					JOINT Neck
					{
						OFFSET -0.003700 21.199493 -0.826900
						CHANNELS 3 Xrotation Yrotation Zrotation
						JOINT Head
						{
							OFFSET 0.000000 20.442200 4.834800
							CHANNELS 3 Xrotation Yrotation Zrotation
							JOINT HeadTop_End
							{
								OFFSET 0.000000 34.668396 4.968400
								CHANNELS 3 Xrotation Yrotation Zrotation
								End Site
								{
									OFFSET 0.000000 0.000000 0.000000
								}
							}
						}
					}
					JOINT LeftShoulder
					{
						OFFSET 3.288150 8.794197 -1.372250
						CHANNELS 3 Xrotation Yrotation Zrotation
						JOINT LeftShoulder_split
						{
							OFFSET 3.288150 8.794197 -1.372250
							CHANNELS 3 Xrotation Yrotation Zrotation
							JOINT LeftArm
							{
								OFFSET 11.953299 -2.279007 -0.146200
								CHANNELS 3 Xrotation Yrotation Zrotation
								JOINT LeftForeArm
								{
									OFFSET 18.448900 0.000000 0.000000
									CHANNELS 3 Xrotation Yrotation Zrotation
									JOINT LeftHand
									{
										OFFSET 29.527798 0.000000 0.000000
										CHANNELS 3 Xrotation Yrotation Zrotation
										JOINT LeftHandThumb1
										{
											OFFSET 10.739754 -2.369614 9.225399
											CHANNELS 3 Xrotation Yrotation Zrotation
											JOINT LeftHandThumb2
											{
												OFFSET 4.926170 -2.844131 2.844125
												CHANNELS 3 Xrotation Yrotation Zrotation
												JOINT LeftHandThumb3
												{
													OFFSET 4.614891 -2.664413 2.664409
													CHANNELS 3 Xrotation Yrotation Zrotation
													JOINT LeftHandThumb4
													{
														OFFSET 4.432465 -2.559082 2.559083
														CHANNELS 3 Xrotation Yrotation Zrotation
														End Site
														{
															OFFSET 0.000000 0.000000 0.000000
														}
													}
												}
											}
										}
										JOINT LeftHandIndex1
										{
											OFFSET 26.467674 0.187653 6.405298
											CHANNELS 3 Xrotation Yrotation Zrotation
											JOINT LeftHandIndex2
											{
												OFFSET 8.792900 0.000000 0.000000
												CHANNELS 3 Xrotation Yrotation Zrotation
												JOINT LeftHandIndex3
												{
													OFFSET 10.075203 0.000000 0.000000
													CHANNELS 3 Xrotation Yrotation Zrotation
													End Site
													{
														OFFSET 0.000000 0.000000 0.000000
													}
												}
											}
										}
										JOINT LeftHandMiddle1
										{
											OFFSET 25.764404 0.000000 0.000000
											CHANNELS 3 Xrotation Yrotation Zrotation
											JOINT LeftHandMiddle2
											{
												OFFSET 9.393974 0.000000 0.000000
												CHANNELS 3 Xrotation Yrotation Zrotation
												JOINT LeftHandMiddle3
												{
													OFFSET 10.771950 0.000000 0.000000
													CHANNELS 3 Xrotation Yrotation Zrotation
													End Site
													{
														OFFSET 0.000000 0.000000 0.000000
													}
												}
											}
										}
										JOINT LeftHandRing1
										{
											OFFSET 24.660927 0.144547 -6.225808
											CHANNELS 3 Xrotation Yrotation Zrotation
											JOINT LeftHandRing2
											{
												OFFSET 9.393799 0.000000 0.000000
												CHANNELS 3 Xrotation Yrotation Zrotation
												JOINT LeftHandRing3
												{
													OFFSET 9.928497 0.000000 0.000000
													CHANNELS 3 Xrotation Yrotation Zrotation
													End Site
													{
														OFFSET 0.000000 0.000000 0.000000
													}
												}
											}
										}
										JOINT LeftHandPinky1
										{
											OFFSET 23.655350 0.125290 -12.815412
											CHANNELS 3 Xrotation Yrotation Zrotation
											JOINT LeftHandPinky2
											{
												OFFSET 8.425102 0.000000 0.000000
												CHANNELS 3 Xrotation Yrotation Zrotation
												JOINT LeftHandPinky3
												{
													OFFSET 8.147003 0.000000 0.000000
													CHANNELS 3 Xrotation Yrotation Zrotation
													End Site
													{
														OFFSET 0.000000 0.000000 0.000000
													}
												}
											}
										}
									}
								}
							}
						}
					}
					JOINT RightShoulder
					{
						OFFSET -3.249400 8.794197 -1.372250
						CHANNELS 3 Xrotation Yrotation Zrotation
						JOINT RightShoulder_split
						{
							OFFSET -3.249400 8.794197 -1.372250
							CHANNELS 3 Xrotation Yrotation Zrotation
							JOINT RightArm
							{
								OFFSET -11.953299 -2.279007 -0.146200
								CHANNELS 3 Xrotation Yrotation Zrotation
								JOINT RightForeArm
								{
									OFFSET -18.448900 0.000000 0.000000
									CHANNELS 3 Xrotation Yrotation Zrotation
									JOINT RightHand
									{
										OFFSET -29.527802 0.000000 0.000000
										CHANNELS 3 Xrotation Yrotation Zrotation
										JOINT RightHandThumb1
										{
											OFFSET -10.739754 -2.369614 9.225399
											CHANNELS 3 Xrotation Yrotation Zrotation
											JOINT RightHandThumb2
											{
												OFFSET -4.926170 -2.844131 2.844125
												CHANNELS 3 Xrotation Yrotation Zrotation
												JOINT RightHandThumb3
												{
													OFFSET -4.614891 -2.664413 2.664409
													CHANNELS 3 Xrotation Yrotation Zrotation
													JOINT RightHandThumb4
													{
														OFFSET -4.432465 -2.559082 2.559083
														CHANNELS 3 Xrotation Yrotation Zrotation
														End Site
														{
															OFFSET 0.000000 0.000000 0.000000
														}
													}
												}
											}
										}
										JOINT RightHandIndex1
										{
											OFFSET -26.467674 0.187653 6.405298
											CHANNELS 3 Xrotation Yrotation Zrotation
											JOINT RightHandIndex2
											{
												OFFSET -8.792900 0.000000 0.000000
												CHANNELS 3 Xrotation Yrotation Zrotation
												JOINT RightHandIndex3
												{
													OFFSET -10.075203 0.000000 0.000000
													CHANNELS 3 Xrotation Yrotation Zrotation
													End Site
													{
														OFFSET 0.000000 0.000000 0.000000
													}
												}
											}
										}
										JOINT RightHandMiddle1
										{
											OFFSET -25.764404 0.000000 0.000000
											CHANNELS 3 Xrotation Yrotation Zrotation
											JOINT RightHandMiddle2
											{
												OFFSET -9.393974 0.000000 0.000000
												CHANNELS 3 Xrotation Yrotation Zrotation
												JOINT RightHandMiddle3
												{
													OFFSET -10.771950 0.000000 0.000000
													CHANNELS 3 Xrotation Yrotation Zrotation
													End Site
													{
														OFFSET 0.000000 0.000000 0.000000
													}
												}
											}
										}
										JOINT RightHandRing1
										{
											OFFSET -24.660927 0.144547 -6.225808
											CHANNELS 3 Xrotation Yrotation Zrotation
											JOINT RightHandRing2
											{
												OFFSET -9.393799 0.000000 0.000000
												CHANNELS 3 Xrotation Yrotation Zrotation
												JOINT RightHandRing3
												{
													OFFSET -9.928497 0.000000 0.000000
													CHANNELS 3 Xrotation Yrotation Zrotation
													End Site
													{
														OFFSET 0.000000 0.000000 0.000000
													}
												}
											}
										}
										JOINT RightHandPinky1
										{
											OFFSET -23.655350 0.125290 -12.815412
											CHANNELS 3 Xrotation Yrotation Zrotation
											JOINT RightHandPinky2
											{
												OFFSET -8.425102 0.000000 0.000000
												CHANNELS 3 Xrotation Yrotation Zrotation
												JOINT RightHandPinky3
												{
													OFFSET -8.147003 0.000000 0.000000
													CHANNELS 3 Xrotation Yrotation Zrotation
													End Site
													{
														OFFSET 0.000000 0.000000 0.000000
													}
												}
											}
										}
									}
								}
							}
						}
					}
				}
			}
		}
	}
	JOINT LeftUpLeg
	{
		OFFSET 11.394100 -6.187798 -0.413800
		CHANNELS 3 Xrotation Yrotation Zrotation
		JOINT LeftLeg
		{
			OFFSET 0.430247 -32.302673 3.732800
			CHANNELS 3 Xrotation Yrotation Zrotation
			JOINT LeftFoot
			{
				OFFSET -0.430247 -48.264931 -6.423300
				CHANNELS 3 Xrotation Yrotation Zrotation
				JOINT LeftToeBase
				{
					OFFSET 4.230900 -16.068199 23.438400
					CHANNELS 3 Xrotation Yrotation Zrotation
					JOINT LeftToe_End
					{
						OFFSET 4.510700 0.695400 19.974600
						CHANNELS 3 Xrotation Yrotation Zrotation
						End Site
						{
							OFFSET 0.000000 0.000000 0.000000
						}
					}
				}
			}
		}
	}
	JOINT RightUpLeg
	{
		OFFSET -11.333700 -6.187798 -0.413800
		CHANNELS 3 Xrotation Yrotation Zrotation
		JOINT RightLeg
		{
			OFFSET -0.430392 -32.302628 3.733000
			CHANNELS 3 Xrotation Yrotation Zrotation
			JOINT RightFoot
			{
				OFFSET 0.430392 -48.264973 -6.423500
				CHANNELS 3 Xrotation Yrotation Zrotation
				JOINT RightToeBase
				{
					OFFSET -4.230900 -16.068199 23.438400
					CHANNELS 3 Xrotation Yrotation Zrotation
					JOINT RightToe_End
					{
						OFFSET -4.510700 0.695400 19.974600
						CHANNELS 3 Xrotation Yrotation Zrotation
						End Site
						{
							OFFSET 0.000000 0.000000 0.000000
						}
					}
				}
			}
		}
	}
}
MOTION
Frames: 5
Frame Time: 0.016667
-6.875381 80.544670 14.851458 15.159793 45.590174 -6.894654 8.113861 8.561411 0.111473 2.381662 15.778994 -0.339814 0.000000 0.000000 0.000000 2.403997 15.779115 -0.339337 24.492240 -34.509592 6.782149 -25.202423 -35.567469 -2.580329 -0.000000 0.000001 0.000000 3.133504 -2.562306 -3.584628 0.000000 0.000000 0.000000 -38.240757 7.071620 -29.653577 51.130321 1.007878 17.797859 -12.087044 -6.543427 6.823678 0.717873 -6.071441 10.111285 2.373399 19.986112 -2.038330 -3.156282 -10.994086 -3.942386 -0.000000 -0.000000 0.000000 9.749541 -2.596992 0.987091 -0.005776 0.241068 -8.886561 0.000002 -0.000002 0.000002 9.008214 3.812752 -14.287948 0.043544 0.559776 -9.088834 -0.000001 0.000000 -0.000001 10.700121 16.687177 -35.234839 0.141863 0.238689 -28.896929 -0.000003 0.000000 0.000002 11.696320 25.216713 -38.134083 0.132796 0.212979 -32.263563 0.000001 -0.000002 -0.000004 -3.243330 8.889437 -18.987007 0.000000 0.000000 0.000000 -18.337455 -10.441366 2.113099 144.016574 167.285908 -173.359422 -12.660220 -2.965744 -5.790685 9.279833 0.855323 2.186166 1.377816 -17.419894 3.021608 -5.063626 15.450277 6.710035 0.000004 0.000000 -0.000000 8.977440 0.914867 -26.573698 -0.055955 -0.245620 0.029077 0.000001 0.000003 0.000001 7.645421 -7.256346 -8.401649 0.102457 -0.524310 3.712648 0.000002 -0.000000 0.000000 6.495338 -19.152590 6.388325 0.205313 -0.177333 17.221786 -0.000003 -0.000001 -0.000000 8.267274 -27.952785 40.018072 0.357928 -0.175317 49.203190 0.000000 -0.000001 0.000000 -77.272252 -6.163330 -32.727777 68.281271 -48.077063 5.240801 0.658623 -0.508395 -0.630226 -0.265525 1.013637 0.842662 -0.000000 0.000002 0.000000 9.360980 -48.458731 1.118065 47.881306 11.658400 -9.756898 -31.466360 -1.102360 -2.181382 -38.110939 -9.554900 7.601554 -0.000000 0.000000 0.000000 
-6.615211 80.713158 14.834354 14.760237 44.134340 -6.571267 8.145592 8.518291 0.091177 2.453882 15.715417 -0.410859 0.000000 0.000000 0.000000 2.476211 15.715463 -0.410368 24.483090 -34.297815 7.138970 -25.082997 -35.421959 -2.270463 0.000000 0.000001 0.000001 3.030142 -2.053842 -3.444213 0.000000 0.000000 0.000000 -34.893633 7.814698 -28.841413 51.215245 1.798517 17.534532 -13.743619 -6.963587 5.081476 0.690164 -6.257990 9.347858 2.373402 19.986114 -2.038330 -2.950732 -10.470258 -3.633102 -0.000001 0.000001 0.000001 9.889667 -2.215688 0.150827 -0.005910 0.241161 -9.214052 0.000003 -0.000000 -0.000000 9.055371 4.126233 -14.668279 0.045013 0.562265 -9.437238 0.000000 0.000001 0.000001 10.739764 16.814766 -35.132164 0.137660 0.239664 -28.699331 -0.000000 -0.000001 0.000001 11.760297 25.391534 -38.044321 0.132615 0.213291 -32.330373 -0.000000 0.000000 -0.000002 -3.234083 9.381073 -18.988028 0.000000 0.000000 0.000000 -20.179970 -10.125705 2.111665 144.235222 166.478730 -172.151599 -12.150601 -4.188270 -6.691111 9.387993 0.822774 2.124792 1.377805 -17.419921 3.021604 -4.907285 15.110211 6.489221 0.000001 0.000000 0.000000 9.067878 0.695026 -25.814418 -0.051494 -0.245691 0.064850 0.000000 0.000001 -0.000003 7.626674 -7.125902 -7.923838 0.102859 -0.525819 3.951779 0.000003 -0.000001 -0.000000 6.454379 -18.622968 6.787670 0.200249 -0.179021 17.261560 0.000002 -0.000000 0.000001 7.978924 -28.024635 39.947154 0.355186 -0.175841 48.983310 0.000000 0.000001 -0.000000 -76.992105 -6.270477 -31.958865 68.192021 -47.358892 5.117473 0.440701 -0.542915 -0.582799 -0.256874 1.016462 0.842010 -0.000000 -0.000003 -0.000000 8.759797 -47.059594 0.345704 47.981789 12.259391 -9.728934 -31.199543 -1.425522 -2.409501 -38.205244 -9.490795 7.529540 -0.000000 -0.000000 0.000000 
-6.323724 80.887085 14.818013 14.244462 42.512422 -6.160808 8.168288 8.470708 0.054684 2.510254 15.645964 -0.515674 0.000000 0.000000 0.000000 2.532577 15.646036 -0.515178 24.400714 -34.088245 7.703135 -24.875692 -35.237639 -1.959295 0.000002 -0.000000 -0.000001 2.904505 -1.393843 -3.364779 0.000000 0.000000 0.000000 -31.432667 8.742963 -28.038418 51.355697 2.474089 17.546589 -14.985691 -7.308007 3.153647 0.630775 -6.463495 8.584042 2.373403 19.986112 -2.038331 -2.743502 -9.931750 -3.318170 -0.000001 0.000000 0.000001 10.025378 -1.815707 -0.661301 -0.006040 0.241284 -9.522521 -0.000008 -0.000001 0.000000 9.103780 4.430291 -15.033813 0.046500 0.564845 -9.784038 -0.000004 0.000001 0.000000 10.772717 16.882098 -35.025306 0.133034 0.240870 -28.494052 -0.000001 -0.000004 -0.000003 11.843074 25.575864 -38.001123 0.132596 0.213753 -32.423857 0.000002 0.000001 0.000001 -3.144800 9.710547 -18.951712 0.000000 0.000000 0.000000 -22.316876 -9.294428 2.336564 144.310860 166.066187 -170.952094 -11.502448 -5.129978 -7.348376 9.669553 0.616308 2.214289 1.377771 -17.419907 3.021589 -4.745886 14.753905 6.259255 0.000002 0.000000 -0.000000 9.166959 0.351643 -24.705363 -0.047731 -0.246354 0.536672 -0.000002 -0.000000 -0.000001 7.623391 -7.047095 -7.050675 0.103828 -0.528121 4.369222 -0.000000 -0.000000 0.000000 6.475534 -18.077224 7.614139 0.194435 -0.181335 17.489903 -0.000004 0.000002 -0.000003 7.820539 -27.942574 40.349985 0.353083 -0.176023 48.987124 0.000003 -0.000001 -0.000000 -76.619908 -6.344300 -31.086001 68.130775 -46.552773 4.974282 0.193112 -0.583775 -0.534034 -0.247991 1.019552 0.841889 0.000000 -0.000000 0.000000 8.171410 -45.516927 -0.598082 47.858739 11.520069 -9.731214 -30.913429 -0.618684 -1.718297 -38.283658 -9.404770 7.448018 -0.000001 -0.000000 -0.000000 
-6.007783 81.063072 14.795995 13.644731 40.800996 -5.700435 8.202737 8.393508 0.016950 2.590921 15.519607 -0.627982 0.000000 0.000000 0.000000 2.613252 15.519675 -0.627484 23.964943 -33.896501 8.093927 -24.622540 -35.034219 -1.643728 0.000000 -0.000000 -0.000001 2.760275 -0.547906 -3.344331 0.000000 0.000000 0.000000 -27.854189 9.898209 -27.279946 51.514369 3.115325 17.933604 -15.929272 -7.467016 0.985762 0.527128 -6.696446 7.834179 2.373400 19.986114 -2.038328 -2.537527 -9.386650 -3.002688 -0.000000 0.000002 -0.000000 10.153715 -1.387431 -1.422219 -0.006226 0.241383 -9.803560 -0.000001 0.000001 0.000001 9.151811 4.724937 -15.358937 0.048178 0.567333 -10.114802 0.000000 -0.000000 -0.000000 10.792665 16.881075 -34.884604 0.127716 0.242431 -28.266103 -0.000001 -0.000001 -0.000000 11.932724 25.749489 -37.966723 0.132591 0.214250 -32.522113 -0.000000 0.000002 0.000001 -3.150918 9.830076 -18.703804 0.000000 0.000000 0.000000 -24.875213 -7.756470 2.628347 144.587346 165.957491 -169.821807 -10.795660 -5.821795 -7.801436 10.147160 0.218075 2.483475 1.377809 -17.419899 3.021639 -4.575801 14.374427 6.017100 -0.000002 -0.000000 0.000000 9.294110 -0.101588 -23.043795 -0.044946 -0.247255 1.135078 -0.000002 0.000000 -0.000001 7.644647 -7.010153 -5.719502 0.105626 -0.531391 5.014002 0.000002 -0.000001 -0.000001 6.566112 -17.505220 8.934419 0.187942 -0.184183 17.963237 -0.000001 -0.000001 -0.000000 7.824100 -27.677450 41.312488 0.351837 -0.175980 49.270174 0.000000 0.000002 0.000001 -76.170181 -6.412576 -30.188794 68.090689 -45.649822 4.832160 -0.082210 -0.628612 -0.500490 -0.238818 1.022702 0.842158 -0.000000 -0.000003 -0.000000 7.645220 -43.968544 -1.577835 47.903843 11.731360 -9.683514 -30.623474 -0.551971 -1.543525 -38.340270 -9.301380 7.361508 0.000000 0.000000 -0.000000 
-5.673450 81.240326 14.753354 13.027765 39.005581 -5.243315 8.258991 8.265562 -0.011581 2.713039 15.294482 -0.723579 0.000000 0.000000 0.000000 2.735401 15.294627 -0.723101 22.780643 -33.725063 7.697572 -24.354923 -34.888285 -1.203824 0.000002 0.000001 -0.000002 2.600913 -0.067494 -3.161111 0.000000 0.000000 0.000000 -24.095447 12.170712 -26.669068 51.661188 3.695025 19.027302 -16.704332 -7.357750 -1.447938 0.365395 -6.979439 7.100847 2.373401 19.986114 -2.038331 -2.318137 -8.795206 -2.664342 0.000000 0.000002 -0.000000 10.272565 -0.922337 -2.118153 -0.006440 0.241475 -10.038537 0.000001 -0.000001 -0.000000 9.197257 5.010859 -15.620427 0.050090 0.569842 -10.420882 0.000001 0.000000 0.000000 10.793092 16.807572 -34.680443 0.121965 0.244026 -27.998025 -0.000002 -0.000002 0.000002 12.012163 25.888085 -37.896898 0.132550 0.214774 -32.600063 -0.000000 0.000001 0.000002 -3.339997 9.640840 -18.623119 0.000000 0.000000 0.000000 -27.821727 -5.051702 3.806247 148.572242 166.161058 -170.379875 -13.204087 -6.160397 -8.098536 10.832172 -0.376974 2.952838 1.377811 -17.419914 3.021609 -4.399831 13.975741 5.764492 0.000002 -0.000000 -0.000001 9.476827 -0.637920 -20.851492 -0.042873 -0.248507 2.008686 0.000000 -0.000001 -0.000002 7.699472 -6.999452 -3.894297 0.108387 -0.535739 5.914706 -0.000002 0.000000 0.000000 6.725032 -16.895899 10.794584 0.181101 -0.187592 18.724306 0.000000 0.000001 0.000000 8.000068 -27.205292 42.891730 0.349717 -0.175760 49.876282 -0.000002 -0.000002 -0.000002 -75.682382 -6.496961 -29.287496 68.036286 -44.647635 4.686210 -0.370476 -0.675596 -0.465153 -0.229278 1.026030 0.842699 -0.000000 0.000002 0.000000 7.099080 -42.394025 -2.604170 47.996788 11.951701 -9.658378 -30.332372 -0.497179 -1.305181 -38.370848 -9.185285 7.276489 -0.000000 -0.000000 -0.000000 
